<svg xmlns="http://www.w3.org/2000/svg" viewBox="0 0 33 33" fill="#a80d26"><path d="M16.5 32.65c-6.145 0-11.534-4.037-12.975-9.655A3.595 3.595 0 0 1 0 19.405a3.596 3.596 0 0 1 3.592-3.592H3.9c1.875-5.076 6.892-8.461 12.601-8.461s10.726 3.385 12.601 8.461h.309a3.596 3.596 0 0 1 3.591 3.592 3.594 3.594 0 0 1-3.524 3.59c-1.443 5.618-6.833 9.655-12.978 9.655zM3.592 16.813C2.163 16.813 1 17.977 1 19.405s1.163 2.591 2.592 2.591h.328a.5.5 0 0 1 .488.393c1.186 5.366 6.271 9.262 12.092 9.262s10.907-3.896 12.093-9.262a.501.501 0 0 1 .488-.393h.328c1.429 0 2.591-1.162 2.591-2.591s-1.162-2.592-2.591-2.592h-.662a.5.5 0 0 1-.474-.341c-1.636-4.856-6.367-8.12-11.773-8.12s-10.138 3.264-11.773 8.12a.5.5 0 0 1-.474.341h-.661z"/><circle cx="20.69" cy="21.334" r="1.208"/><circle cx="12.771" cy="21.334" r="1.208"/><path d="M16.499 27.87a6.722 6.722 0 0 1-3.533-1.006l-.197-.121a.501.501 0 0 1 .525-.851l.196.121a5.71 5.71 0 0 0 6.021-.001l.195-.121a.5.5 0 0 1 .525.851l-.196.121a6.741 6.741 0 0 1-3.536 1.007zM17.6 8.417a4.431 4.431 0 0 1-4.426-4.426A3.646 3.646 0 0 1 16.815.349a3.017 3.017 0 0 1 3.013 3.013 2.513 2.513 0 0 1-2.511 2.511 2.11 2.11 0 0 1-2.107-2.108.5.5 0 0 1 1 0c0 .611.497 1.108 1.107 1.108.833 0 1.511-.678 1.511-1.511a2.016 2.016 0 0 0-2.013-2.013 2.645 2.645 0 0 0-2.641 2.642A3.43 3.43 0 0 0 17.6 7.417a.5.5 0 0 1 0 1z"/></svg>