<svg xmlns="http://www.w3.org/2000/svg" viewBox="0 0 463 463" fill="#a80d26"><path d="M407.5 0h-160c-6.177 0-11.801 2.399-16 6.31-4.199-3.911-9.823-6.31-16-6.31h-160C42.542 0 32 10.542 32 23.5v416c0 12.958 10.542 23.5 23.5 23.5h160c6.177 0 11.801-2.399 16-6.31 4.199 3.911 9.823 6.31 16 6.31h160c12.958 0 23.5-10.542 23.5-23.5v-416C431 10.542 420.458 0 407.5 0zM224 32h-8.5a7.5 7.5 0 0 0 0 15h8.5v369h-8.5a7.5 7.5 0 0 0 0 15h8.5v8.5c0 4.687-3.813 8.5-8.5 8.5h-160c-4.687 0-8.5-3.813-8.5-8.5v-416c0-4.687 3.813-8.5 8.5-8.5h160c4.687 0 8.5 3.813 8.5 8.5V32zm192 407.5c0 4.687-3.813 8.5-8.5 8.5h-160c-4.687 0-8.5-3.813-8.5-8.5V431h8.5a7.5 7.5 0 0 0 0-15H239V47h8.5a7.5 7.5 0 0 0 0-15H239v-8.5c0-4.687 3.813-8.5 8.5-8.5h160c4.687 0 8.5 3.813 8.5 8.5v416z"/><path d="M190.942 134.57A7.5 7.5 0 0 0 183.5 128h-96a7.5 7.5 0 0 0-7.442 6.57l-8.064 64.515a64.007 64.007 0 0 0 15.521 50.277A64.004 64.004 0 0 0 128 270.547V322.5c0 11.855-9.645 21.5-21.5 21.5a7.5 7.5 0 0 0 0 15h58a7.5 7.5 0 0 0 0-15c-11.855 0-21.5-9.645-21.5-21.5v-51.953c15.552-1.833 30.01-9.318 40.485-21.185a64.008 64.008 0 0 0 15.521-50.277l-8.064-64.515zM172.24 239.435A49.002 49.002 0 0 1 135.521 256h-.041a49.002 49.002 0 0 1-36.719-16.565A48.938 48.938 0 0 1 89.199 223h92.604a48.974 48.974 0 0 1-9.563 16.435zM184.477 208H86.524c-.047-2.343.059-4.7.353-7.055L94.121 143h82.759l7.243 57.945c.294 2.355.401 4.712.354 7.055zM371.5 56h-88C268.336 56 256 68.336 256 83.5s12.336 27.5 27.5 27.5h88c15.164 0 27.5-12.336 27.5-27.5S386.664 56 371.5 56zm0 40h-88c-6.893 0-12.5-5.607-12.5-12.5S276.607 71 283.5 71h88c6.893 0 12.5 5.607 12.5 12.5S378.393 96 371.5 96zm4 47a7.5 7.5 0 0 0 0-15h-96a7.5 7.5 0 0 0 0 15h96zM256 207.5a7.5 7.5 0 0 0 7.5 7.5h112a7.5 7.5 0 0 0 0-15h-112a7.5 7.5 0 0 0-7.5 7.5zm7.5 39.5h80a7.5 7.5 0 0 0 0-15h-80a7.5 7.5 0 0 0 0 15zm128-15h-16a7.5 7.5 0 0 0 0 15h16a7.5 7.5 0 0 0 0-15zm-128 47h112a7.5 7.5 0 0 0 0-15h-112a7.5 7.5 0 0 0 0 15zm0 32h80a7.5 7.5 0 0 0 0-15h-80a7.5 7.5 0 0 0 0 15zm128-15h-16a7.5 7.5 0 0 0 0 15h16a7.5 7.5 0 0 0 0-15zm-128 47h112a7.5 7.5 0 0 0 0-15h-112a7.5 7.5 0 0 0 0 15zm80 17h-80a7.5 7.5 0 0 0 0 15h80a7.5 7.5 0 0 0 0-15zm48 0h-16a7.5 7.5 0 0 0 0 15h16a7.5 7.5 0 0 0 0-15z"/></svg>