<svg xmlns="http://www.w3.org/2000/svg" viewBox="0 0 463 463" fill="#a80d26"><path d="M407.5 0h-160c-6.177 0-11.801 2.399-16 6.31-4.199-3.911-9.823-6.31-16-6.31h-160C42.542 0 32 10.542 32 23.5v416c0 12.958 10.542 23.5 23.5 23.5h160c6.177 0 11.801-2.399 16-6.31 4.199 3.911 9.823 6.31 16 6.31h160c12.958 0 23.5-10.542 23.5-23.5v-416C431 10.542 420.458 0 407.5 0zM224 32h-8.5a7.5 7.5 0 0 0 0 15h8.5v369h-8.5a7.5 7.5 0 0 0 0 15h8.5v8.5c0 4.687-3.813 8.5-8.5 8.5h-160c-4.687 0-8.5-3.813-8.5-8.5v-416c0-4.687 3.813-8.5 8.5-8.5h160c4.687 0 8.5 3.813 8.5 8.5V32zm192 407.5c0 4.687-3.813 8.5-8.5 8.5h-160c-4.687 0-8.5-3.813-8.5-8.5V431h8.5a7.5 7.5 0 0 0 0-15H239V47h8.5a7.5 7.5 0 0 0 0-15H239v-8.5c0-4.687 3.813-8.5 8.5-8.5h160c4.687 0 8.5 3.813 8.5 8.5v416z"/><path d="M371.5 56h-88C268.336 56 256 68.336 256 83.5s12.336 27.5 27.5 27.5h88c15.164 0 27.5-12.336 27.5-27.5S386.664 56 371.5 56zm0 40h-88c-6.893 0-12.5-5.607-12.5-12.5S276.607 71 283.5 71h88c6.893 0 12.5 5.607 12.5 12.5S378.393 96 371.5 96zm4 47a7.5 7.5 0 0 0 0-15h-96a7.5 7.5 0 0 0 0 15h96zM256 207.5a7.5 7.5 0 0 0 7.5 7.5h112a7.5 7.5 0 0 0 0-15h-112a7.5 7.5 0 0 0-7.5 7.5zm7.5 39.5h80a7.5 7.5 0 0 0 0-15h-80a7.5 7.5 0 0 0 0 15zm128-15h-16a7.5 7.5 0 0 0 0 15h16a7.5 7.5 0 0 0 0-15zm-128 47h112a7.5 7.5 0 0 0 0-15h-112a7.5 7.5 0 0 0 0 15zm0 32h80a7.5 7.5 0 0 0 0-15h-80a7.5 7.5 0 0 0 0 15zm128-15h-16a7.5 7.5 0 0 0 0 15h16a7.5 7.5 0 0 0 0-15zm-128 47h112a7.5 7.5 0 0 0 0-15h-112a7.5 7.5 0 0 0 0 15zm80 17h-80a7.5 7.5 0 0 0 0 15h80a7.5 7.5 0 0 0 0-15zm48 0h-16a7.5 7.5 0 0 0 0 15h16a7.5 7.5 0 0 0 0-15zm-264-264a7.5 7.5 0 0 0-7.5 7.5V160h-9v-56.5a7.5 7.5 0 0 0-15 0V160h-9v-56.5a7.5 7.5 0 0 0-15 0v72c0 12.958 10.542 23.5 23.5 23.5h.5v168.5a7.5 7.5 0 0 0 15 0V199h.5c12.958 0 23.5-10.542 23.5-23.5v-72a7.5 7.5 0 0 0-7.5-7.5zm-7.5 79.5c0 4.687-3.813 8.5-8.5 8.5h-16c-4.687 0-8.5-3.813-8.5-8.5v-.5h33v.5zm63.719-65.183A15.849 15.849 0 0 0 167.899 96C159.132 96 152 103.132 152 111.899V367.5a7.5 7.5 0 0 0 15 0V287h6.987a23.553 23.553 0 0 0 17.349-7.649 23.556 23.556 0 0 0 6.055-17.968l-13.672-151.066zm-3.457 158.916a8.406 8.406 0 0 1-6.275 2.767H167V111.899a.9.9 0 0 1 .899-.899c.464 0 .849.348.888.739l13.665 150.995a8.405 8.405 0 0 1-2.19 6.499z"/></svg>