<svg xmlns="http://www.w3.org/2000/svg" viewBox="0 0 463 463" fill="#a80d26"><path d="M275 159.5a7.5 7.5 0 0 0-7.5-7.5h-112a7.5 7.5 0 0 0 0 15h112a7.5 7.5 0 0 0 7.5-7.5zm-16 32a7.5 7.5 0 0 0-7.5-7.5h-80a7.5 7.5 0 0 0 0 15h80a7.5 7.5 0 0 0 7.5-7.5zm.5-56.5c12.958 0 23.5-10.542 23.5-23.5S272.458 88 259.5 88h-96c-12.958 0-23.5 10.542-23.5 23.5s10.542 23.5 23.5 23.5h96zM155 111.5c0-4.687 3.813-8.5 8.5-8.5h96c4.687 0 8.5 3.813 8.5 8.5s-3.813 8.5-8.5 8.5h-96c-4.687 0-8.5-3.813-8.5-8.5z"/><path d="M346.723 417.14c-1.57-19.72-10.354-37.431-23.723-50.486V15.5C323 6.953 316.047 0 307.5 0h-192C106.953 0 100 6.953 100 15.5v432c0 8.547 6.953 15.5 15.5 15.5h224c12.958 0 23.5-10.542 23.5-23.5 0-10.438-6.843-19.305-16.277-22.36zM331.55 416h-128.1c3.73-32.043 31.023-57 64.05-57s60.32 24.957 64.05 57zm-157.953 32H115.5a.5.5 0 0 1-.5-.5v-432a.5.5 0 0 1 .5-.5h192a.5.5 0 0 1 .5.5v339.627a78.923 78.923 0 0 0-33-10.763V327h8.5a7.5 7.5 0 0 0 0-15h-32a7.5 7.5 0 0 0 0 15h8.5v17.364c-38.239 3.596-68.667 34.385-71.723 72.776C178.843 420.195 172 429.062 172 439.5c0 2.997.57 5.862 1.597 8.5zm165.903 0h-144c-4.687 0-8.5-3.813-8.5-8.5s3.813-8.5 8.5-8.5h144c4.687 0 8.5 3.813 8.5 8.5s-3.813 8.5-8.5 8.5z"/></svg>